<svg width="30" height="24" viewBox="0 0 30 24" fill="none" xmlns="http://www.w3.org/2000/svg">
<path fill-rule="evenodd" clip-rule="evenodd" d="M0.166748 2C0.166748 1.17157 0.838321 0.5 1.66675 0.5H28.3334C29.1618 0.5 29.8334 1.17157 29.8334 2C29.8334 2.82843 29.1618 3.5 28.3334 3.5H1.66675C0.838321 3.5 0.166748 2.82843 0.166748 2ZM0.166748 12C0.166748 11.1716 0.838321 10.5 1.66675 10.5H28.3334C29.1618 10.5 29.8334 11.1716 29.8334 12C29.8334 12.8284 29.1618 13.5 28.3334 13.5H1.66675C0.838321 13.5 0.166748 12.8284 0.166748 12ZM15.1667 22C15.1667 21.1716 15.8383 20.5 16.6667 20.5H28.3334C29.1618 20.5 29.8334 21.1716 29.8334 22C29.8334 22.8284 29.1618 23.5 28.3334 23.5H16.6667C15.8383 23.5 15.1667 22.8284 15.1667 22Z" fill="white"/>
</svg>
